<?xml version="1.0" encoding="UTF-8"?>
<svg xmlns="http://www.w3.org/2000/svg" width="2048" height="2048" viewBox="0 0 2048 2048">
  <title>ualvarez logo</title>
  <desc>Vectorized version of the supplied ualvarez logo, with transparent background.</desc>
  <g fill="#FFFFFF" fill-rule="evenodd">
    <path d="M 1015 1376 L 1015 1386 L 1011 1396 L 1005 1403 L 997 1408 L 986 1411 L 973 1411 L 963 1407 L 958 1400 L 958 1389 L 968 1380 L 1010 1374 Z M 613 1376 L 612 1390 L 608 1398 L 602 1404 L 593 1409 L 571 1411 L 562 1407 L 557 1401 L 557 1389 L 567 1380 L 609 1374 Z M 1237 1344 L 1241 1335 L 1251 1325 L 1268 1319 L 1281 1320 L 1293 1325 L 1302 1334 L 1306 1342 L 1304 1347 L 1239 1347 Z M 1366 1286 L 1366 1326 L 1434 1326 L 1436 1328 L 1365 1408 L 1365 1441 L 1503 1442 L 1503 1403 L 1429 1403 L 1427 1401 L 1504 1319 L 1504 1287 Z M 738 1286 L 802 1441 L 853 1442 L 858 1434 L 921 1286 L 872 1287 L 829 1391 L 788 1288 L 786 1286 Z M 332 1287 L 332 1385 L 338 1406 L 346 1420 L 354 1429 L 374 1442 L 390 1446 L 407 1446 L 421 1442 L 433 1435 L 443 1426 L 445 1427 L 446 1442 L 492 1441 L 491 1286 L 445 1287 L 444 1373 L 440 1383 L 432 1393 L 422 1399 L 413 1401 L 403 1400 L 394 1396 L 387 1389 L 382 1379 L 380 1369 L 380 1287 Z M 1186 1284 L 1163 1283 L 1153 1286 L 1140 1294 L 1132 1304 L 1130 1303 L 1129 1286 L 1083 1287 L 1083 1442 L 1130 1441 L 1130 1365 L 1133 1353 L 1139 1342 L 1153 1331 L 1164 1328 L 1187 1328 Z M 936 1297 L 923 1313 L 918 1326 L 918 1332 L 959 1337 L 962 1330 L 970 1323 L 979 1320 L 995 1320 L 1002 1322 L 1011 1328 L 1015 1336 L 1015 1341 L 1008 1345 L 955 1350 L 939 1355 L 929 1361 L 918 1373 L 912 1389 L 912 1407 L 915 1417 L 921 1427 L 934 1438 L 945 1443 L 959 1446 L 977 1446 L 990 1443 L 1006 1435 L 1015 1427 L 1017 1428 L 1019 1442 L 1063 1442 L 1063 1340 L 1059 1321 L 1052 1308 L 1041 1297 L 1029 1290 L 1013 1285 L 996 1283 L 981 1283 L 960 1286 L 948 1290 Z M 532 1298 L 521 1312 L 516 1325 L 516 1332 L 556 1337 L 559 1331 L 571 1322 L 579 1320 L 592 1320 L 605 1325 L 609 1329 L 612 1335 L 612 1341 L 609 1344 L 552 1350 L 539 1354 L 528 1360 L 518 1370 L 510 1390 L 511 1410 L 517 1424 L 521 1429 L 538 1441 L 557 1446 L 574 1446 L 591 1442 L 607 1433 L 613 1427 L 616 1430 L 617 1442 L 661 1442 L 661 1344 L 656 1320 L 646 1303 L 633 1293 L 611 1285 L 595 1283 L 580 1283 L 558 1286 L 546 1290 Z M 1252 1284 L 1236 1289 L 1223 1296 L 1206 1312 L 1198 1324 L 1191 1340 L 1188 1357 L 1188 1372 L 1191 1389 L 1200 1409 L 1215 1426 L 1231 1437 L 1243 1442 L 1262 1446 L 1285 1446 L 1304 1442 L 1319 1435 L 1329 1428 L 1343 1413 L 1350 1398 L 1307 1389 L 1295 1402 L 1287 1406 L 1267 1408 L 1250 1401 L 1240 1391 L 1236 1379 L 1239 1377 L 1353 1378 L 1355 1376 L 1355 1356 L 1352 1340 L 1344 1321 L 1337 1311 L 1327 1301 L 1314 1292 L 1303 1287 L 1287 1283 L 1268 1282 Z M 681 1228 L 680 1441 L 726 1442 L 727 1229 Z M 500 611 L 499 931 L 504 964 L 519 1009 L 533 1035 L 549 1058 L 584 1094 L 624 1122 L 650 1135 L 678 1145 L 722 1154 L 759 1156 L 794 1153 L 827 1146 L 861 1134 L 892 1118 L 914 1103 L 942 1078 L 966 1049 L 985 1018 L 1001 981 L 1010 949 L 1015 916 L 1017 883 L 1021 864 L 1035 830 L 1051 807 L 1079 781 L 1112 762 L 1149 751 L 1189 748 L 1208 750 L 1228 755 L 1255 767 L 1278 783 L 1294 799 L 1309 820 L 1317 836 L 1324 857 L 1327 874 L 1327 904 L 1320 933 L 1308 958 L 1293 979 L 1275 997 L 1259 1009 L 1228 1025 L 1201 1033 L 1180 1036 L 1141 1034 L 1127 1031 L 1100 1021 L 1072 1004 L 1049 982 L 1042 972 L 1038 970 L 1027 1003 L 1014 1029 L 998 1055 L 983 1075 L 968 1091 L 968 1094 L 1002 1117 L 1040 1135 L 1078 1147 L 1123 1155 L 1188 1156 L 1213 1153 L 1241 1147 L 1266 1139 L 1294 1126 L 1313 1114 L 1325 1104 L 1327 1105 L 1328 1154 L 1462 1153 L 1462 874 L 1459 847 L 1453 820 L 1446 798 L 1431 765 L 1404 724 L 1367 686 L 1342 667 L 1324 656 L 1284 637 L 1247 626 L 1206 620 L 1167 620 L 1127 625 L 1093 633 L 1041 653 L 1007 672 L 979 692 L 952 717 L 929 745 L 906 784 L 892 821 L 884 855 L 881 882 L 881 909 L 876 936 L 869 955 L 855 978 L 832 1001 L 805 1017 L 779 1025 L 748 1027 L 732 1025 L 709 1018 L 693 1010 L 675 997 L 653 972 L 644 955 L 638 938 L 635 920 L 638 611 Z"/>
  </g>
  <g fill="#4657FF" fill-rule="evenodd">
    <path d="M 1548 1384 L 1537 1388 L 1527 1397 L 1523 1406 L 1522 1418 L 1526 1430 L 1533 1438 L 1547 1444 L 1559 1444 L 1571 1439 L 1580 1429 L 1584 1415 L 1583 1407 L 1577 1395 L 1569 1388 L 1557 1384 Z M 1550 1017 L 1531 1021 L 1517 1028 L 1502 1041 L 1496 1049 L 1488 1067 L 1486 1076 L 1486 1098 L 1490 1112 L 1495 1122 L 1504 1134 L 1513 1142 L 1535 1153 L 1559 1156 L 1576 1153 L 1590 1147 L 1599 1141 L 1610 1130 L 1618 1118 L 1623 1105 L 1625 1095 L 1625 1078 L 1623 1068 L 1617 1053 L 1611 1044 L 1598 1031 L 1576 1020 L 1560 1017 Z"/>
  </g>
</svg>
